# This file uses centimeters as units for non-parametric coordinates.

mtllib stoneTablet.mtl
g default
v -0.897336 0.325000 -6.938437
v -0.900360 0.263436 -7.000000
v 0.900360 0.263436 -7.000000
v 0.897336 0.325000 -6.938437
v -4.500000 -0.263436 -3.400361
v -4.438436 -0.325000 -3.397337
v -4.500000 -0.263436 6.100091
v -4.438436 -0.325000 6.094029
v -0.900360 -0.263436 -7.000000
v -0.897336 -0.325000 -6.938437
v 0.897336 -0.325000 -6.938437
v 0.900360 -0.263436 -7.000000
v 4.500000 -0.263436 -3.400361
v 4.438436 -0.325000 -3.397337
v 4.500000 -0.263436 6.100091
v 4.438436 -0.325000 6.094029
v -4.430834 0.263436 -4.102616
v -4.370161 0.325000 -4.090547
v -4.500000 0.263436 -3.400361
v -4.438436 0.325000 -3.397337
v -4.430834 -0.263436 -4.102616
v -4.370161 -0.325000 -4.090547
v -4.225994 0.263436 -4.777883
v -4.168841 0.325000 -4.754210
v -4.225994 -0.263436 -4.777883
v -4.168841 -0.325000 -4.754210
v -3.893351 0.263436 -5.400213
v -3.841915 0.325000 -5.365845
v -3.893351 -0.263436 -5.400213
v -3.841915 -0.325000 -5.365845
v -3.445690 0.263436 -5.945690
v -3.401947 0.325000 -5.901947
v -3.445690 -0.263436 -5.945690
v -3.401947 -0.325000 -5.901947
v -2.900213 0.263436 -6.393353
v -2.865844 0.325000 -6.341917
v -2.900213 -0.263436 -6.393353
v -2.865844 -0.325000 -6.341917
v -2.277883 0.263436 -6.725994
v -2.254209 0.325000 -6.668842
v -2.277883 -0.263436 -6.725994
v -2.254209 -0.325000 -6.668842
v -1.602615 0.263436 -6.930835
v -1.590546 0.325000 -6.870162
v -1.602615 -0.263436 -6.930835
v -1.590546 -0.325000 -6.870162
v 1.602615 0.263436 -6.930835
v 1.590546 0.325000 -6.870162
v 1.602615 -0.263436 -6.930835
v 1.590546 -0.325000 -6.870162
v 2.277883 0.263436 -6.725994
v 2.254209 0.325000 -6.668842
v 2.277883 -0.263436 -6.725994
v 2.254209 -0.325000 -6.668842
v 2.900213 0.263436 -6.393353
v 2.865844 0.325000 -6.341917
v 2.900213 -0.263436 -6.393353
v 2.865844 -0.325000 -6.341917
v 3.445690 0.263436 -5.945690
v 3.401947 0.325000 -5.901947
v 3.445690 -0.263436 -5.945690
v 3.401947 -0.325000 -5.901947
v 3.893351 0.263436 -5.400213
v 3.841915 0.325000 -5.365845
v 3.893351 -0.263436 -5.400213
v 3.841915 -0.325000 -5.365845
v 4.225994 0.263436 -4.777883
v 4.168841 0.325000 -4.754210
v 4.225994 -0.263436 -4.777883
v 4.168841 -0.325000 -4.754210
v 4.430834 0.263436 -4.102616
v 4.370161 0.325000 -4.090547
v 4.430834 -0.263436 -4.102616
v 4.370161 -0.325000 -4.090547
v 4.500000 0.263436 -3.400361
v 4.438436 0.325000 -3.397337
v -3.594583 -0.325000 6.938355
v -3.600090 -0.263407 7.000000
v 3.600090 -0.263436 7.000000
v 3.594027 -0.325000 6.938437
v -4.500000 0.263436 6.100091
v -4.438436 0.325000 6.094029
v -3.600090 0.263436 7.000000
v -3.594027 0.325000 6.938437
v 3.594583 0.325000 6.938355
v 3.600090 0.263407 7.000000
v 4.500000 0.263436 6.100091
v 4.438436 0.325000 6.094029
v -4.431499 -0.263436 6.444472
v -4.373506 -0.325000 6.420452
v -4.431499 0.263436 6.444472
v -4.373506 0.325000 6.420452
v -4.236423 -0.263436 6.736425
v -4.192038 -0.325000 6.692040
v -4.236423 0.263436 6.736425
v -4.192038 0.325000 6.692040
v -3.944471 -0.263435 6.931499
v -3.920998 -0.325000 6.873344
v -3.944471 0.263436 6.931499
v -3.920450 0.325000 6.873507
v 3.944471 -0.263436 6.931499
v 3.920450 -0.325000 6.873507
v 3.944471 0.263435 6.931499
v 3.920998 0.325000 6.873344
v 4.236423 -0.263436 6.736425
v 4.192038 -0.325000 6.692040
v 4.236423 0.263436 6.736425
v 4.192038 0.325000 6.692040
v 4.431499 -0.263436 6.444472
v 4.373506 -0.325000 6.420452
v 4.431499 0.263436 6.444472
v 4.373506 0.325000 6.420452
vt 0.400362 0.251676
vt 0.400897 0.227862
vt 0.428815 0.229252
vt 0.420108 0.252855
vt 0.351291 0.251807
vt 0.341391 0.222207
vt 0.331686 0.252930
vt 0.323013 0.229418
vt 0.727762 0.312940
vt 0.500349 0.936248
vt 0.500194 0.765618
vt 0.622673 0.679092
vt 0.621359 0.107245
vt 0.498449 0.948711
vt 0.498371 0.759751
vt 0.617121 0.682429
vt 0.519336 0.044003
vt 0.400866 0.000000
vt 0.420769 0.998729
vt 0.536147 0.054223
vt 0.350602 0.023875
vt 0.220069 0.023315
vt 0.215927 0.053864
vt 0.331830 0.998785
vt 0.119939 0.113875
vt 0.252173 0.936401
vt 0.254088 0.948862
vt 0.130747 0.107077
vt 0.023981 0.484261
vt 0.252115 0.765769
vt 0.134711 0.682447
vt 0.253930 0.759900
vt 0.513003 0.281922
vt 0.494873 0.301437
vt 0.487704 0.290191
vt 0.502842 0.273107
vt 0.522658 0.290150
vt 0.499667 0.313206
vt 0.524087 0.483903
vt 0.500256 0.483811
vt 0.609917 0.099946
vt 0.492829 0.960645
vt 0.478438 0.279734
vt 0.491477 0.263830
vt 0.597446 0.091994
vt 0.483696 0.971647
vt 0.467063 0.270438
vt 0.478436 0.254406
vt 0.583726 0.083333
vt 0.471402 0.981292
vt 0.453539 0.262647
vt 0.463516 0.245292
vt 0.568766 0.074041
vt 0.456418 0.989211
vt 0.437871 0.256678
vt 0.446830 0.236877
vt 0.552781 0.064280
vt 0.439322 0.995099
vt 0.313927 0.256726
vt 0.305093 0.236897
vt 0.199181 0.064010
vt 0.313273 0.995177
vt 0.298232 0.262593
vt 0.288406 0.245161
vt 0.183162 0.073856
vt 0.296169 0.989310
vt 0.284671 0.270274
vt 0.273423 0.254171
vt 0.168220 0.083204
vt 0.281176 0.981410
vt 0.273267 0.279498
vt 0.260298 0.263558
vt 0.154548 0.091884
vt 0.268870 0.971780
vt 0.263993 0.289960
vt 0.248857 0.272860
vt 0.142134 0.099820
vt 0.259723 0.960790
vt 0.256828 0.301320
vt 0.238640 0.281735
vt 0.251996 0.313311
vt 0.228027 0.313281
vt 0.251704 0.483968
vt 0.236190 0.505157
vt 0.476590 0.750453
vt 0.476698 0.726579
vt 0.603122 0.691100
vt 0.485714 0.751617
vt 0.275715 0.750575
vt 0.156915 0.696299
vt 0.266593 0.751747
vt 0.148703 0.691128
vt 0.510415 0.508668
vt 0.497225 0.489468
vt 0.487779 0.522159
vt 0.475639 0.498732
vt 0.484809 0.497549
vt 0.496318 0.517410
vt 0.275957 0.522703
vt 0.276325 0.498824
vt 0.255650 0.517531
vt 0.267147 0.497648
vt 0.254735 0.489577
vt 0.241563 0.508775
vt 0.493293 0.754871
vt 0.610671 0.686395
vt 0.504010 0.512798
vt 0.492070 0.494289
vt 0.259002 0.755014
vt 0.141162 0.686420
vt 0.247959 0.512908
vt 0.259903 0.494389
vt 0.129069 0.706941
vt 0.123030 0.703254
vt 0.136084 0.711373
vt 0.622744 0.706927
vt 0.615738 0.711347
vt 0.628785 0.703245
vt 0.118648 0.086401
vt 0.130024 0.079241
vt 0.142424 0.071354
vt 0.156067 0.062715
vt 0.170943 0.053416
vt 0.186837 0.043633
vt 0.203363 0.033564
vt 0.548708 0.033899
vt 0.565144 0.043899
vt 0.580997 0.053609
vt 0.595882 0.062857
vt 0.609563 0.071477
vt 0.622009 0.079371
vt 0.633424 0.086552
vt 0.117678 0.700202
vt 0.000000 0.313538
vt 0.351212 1.000000
vt 0.401389 0.999969
vt 0.751877 0.483600
vt 0.644294 0.093177
vt 0.727979 0.483730
vt 0.515797 0.505051
vt 0.523637 0.313126
vt 0.632214 0.114103
vt 0.023901 0.313463
vt 0.228939 0.290032
vt 0.227873 0.484093
vt 0.129156 0.679102
vt 0.350747 0.227894
vt 0.232944 0.043591
vt 0.400954 0.023864
vt 0.410241 0.221963
vt 0.275562 0.726710
vt 0.264197 0.522301
vt 0.476052 0.522591
vt 0.594885 0.696263
vt 0.143813 0.716383
vt 0.608004 0.716352
vt 0.000082 0.484172
vt 0.107798 0.093011
vt 0.350681 0.000011
vt 0.532093 0.023679
vt 0.634139 0.700197
vt 0.751664 0.312973
vn -0.019419 0.707444 -0.706502
vn -0.019493 0.707445 -0.706500
vn -0.137899 0.708807 -0.691792
vn -0.137189 0.708807 -0.691933
vn 0.019419 0.707444 -0.706502
vn 0.019493 0.707445 -0.706500
vn 0.137189 0.708807 -0.691933
vn 0.137899 0.708807 -0.691792
vn -0.706980 -0.707217 -0.004748
vn -0.706979 -0.707218 -0.004784
vn -0.706859 -0.707338 0.004833
vn -0.706862 -0.707335 0.004760
vn -0.691961 -0.708813 -0.137021
vn -0.691755 -0.708813 -0.138057
vn -0.646500 -0.713930 0.268965
vn -0.647828 -0.713928 0.265754
vn -0.019493 -0.707445 -0.706500
vn -0.019419 -0.707444 -0.706502
vn -0.137189 -0.708807 -0.691933
vn -0.137899 -0.708807 -0.691792
vn 0.019493 -0.707445 -0.706500
vn 0.019419 -0.707444 -0.706502
vn 0.137899 -0.708807 -0.691792
vn 0.137189 -0.708807 -0.691933
vn 0.706980 -0.707217 -0.004748
vn 0.706979 -0.707218 -0.004784
vn 0.691755 -0.708813 -0.138057
vn 0.691961 -0.708813 -0.137021
vn 0.706862 -0.707335 0.004760
vn 0.706859 -0.707338 0.004833
vn 0.647828 -0.713928 0.265754
vn 0.646500 -0.713930 0.268965
vn -0.691961 0.708813 -0.137021
vn -0.691755 0.708813 -0.138057
vn -0.651354 0.708810 -0.270788
vn -0.652057 0.708810 -0.269092
vn -0.706980 0.707217 -0.004748
vn -0.706979 0.707218 -0.004784
vn -0.706862 0.707335 0.004760
vn -0.706859 0.707338 0.004833
vn -0.652057 -0.708810 -0.269092
vn -0.651354 -0.708810 -0.270788
vn -0.585906 0.708808 -0.392817
vn -0.587137 0.708808 -0.390975
vn -0.587137 -0.708808 -0.390975
vn -0.585906 -0.708808 -0.392817
vn -0.498014 0.708809 -0.499571
vn -0.499577 0.708809 -0.498009
vn -0.499577 -0.708809 -0.498009
vn -0.498014 -0.708809 -0.499572
vn -0.391110 0.708809 -0.587046
vn -0.392692 0.708809 -0.585988
vn -0.392693 -0.708809 -0.585988
vn -0.391111 -0.708809 -0.587046
vn -0.269309 0.708808 -0.651970
vn -0.270585 0.708808 -0.651441
vn -0.270585 -0.708808 -0.651441
vn -0.269309 -0.708808 -0.651970
vn 0.269309 0.708808 -0.651970
vn 0.270585 0.708808 -0.651441
vn 0.270585 -0.708808 -0.651441
vn 0.269309 -0.708808 -0.651970
vn 0.391110 0.708809 -0.587045
vn 0.392693 0.708809 -0.585988
vn 0.392693 -0.708809 -0.585989
vn 0.391111 -0.708809 -0.587046
vn 0.498014 0.708809 -0.499571
vn 0.499577 0.708809 -0.498009
vn 0.499577 -0.708809 -0.498009
vn 0.498014 -0.708809 -0.499572
vn 0.585906 0.708808 -0.392816
vn 0.587137 0.708808 -0.390975
vn 0.587137 -0.708808 -0.390975
vn 0.585906 -0.708808 -0.392816
vn 0.651354 0.708810 -0.270788
vn 0.652057 0.708810 -0.269092
vn 0.652057 -0.708810 -0.269092
vn 0.651354 -0.708810 -0.270788
vn 0.691755 0.708813 -0.138057
vn 0.691961 0.708813 -0.137021
vn 0.706979 0.707218 -0.004784
vn 0.706980 0.707217 -0.004748
vn 0.706859 0.707338 0.004833
vn 0.706862 0.707335 0.004760
vn -0.006243 -0.707539 0.706646
vn -0.006292 -0.707542 0.706644
vn -0.268683 -0.713686 0.646886
vn -0.266295 -0.713689 0.647870
vn 0.006223 -0.707539 0.706646
vn 0.006286 -0.707542 0.706643
vn 0.266111 -0.713929 0.647681
vn 0.268651 -0.713930 0.646630
vn -0.647828 0.713928 0.265754
vn -0.646500 0.713930 0.268965
vn -0.006286 0.707542 0.706643
vn -0.006223 0.707539 0.706646
vn -0.266111 0.713929 0.647681
vn -0.268651 0.713930 0.646630
vn 0.006292 0.707542 0.706644
vn 0.006243 0.707539 0.706646
vn 0.268683 0.713686 0.646886
vn 0.266295 0.713689 0.647870
vn 0.646500 0.713930 0.268965
vn 0.647828 0.713928 0.265754
vn -0.493889 -0.713674 0.496732
vn -0.496944 -0.713682 0.493665
vn -0.496668 0.713929 0.493585
vn -0.493604 0.713929 0.496649
vn 0.493604 -0.713929 0.496649
vn 0.496668 -0.713929 0.493585
vn 0.496943 0.713682 0.493665
vn 0.493889 0.713675 0.496732
vn -0.009080 0.000000 0.999959
vn -0.009085 0.000000 0.999959
vn 0.009080 0.000000 0.999959
vn 0.009085 0.000000 0.999959
vn -0.027623 0.000000 -0.999618
vn -0.027623 0.000000 -0.999618
vn 0.027623 0.000000 -0.999618
vn 0.027623 0.000000 -0.999618
vn 0.999976 0.000000 0.006958
vn 0.999976 0.000000 0.006958
vn 0.999977 0.000000 -0.006779
vn 0.999977 0.000000 -0.006779
vn -0.999977 0.000000 -0.006779
vn -0.999977 0.000000 -0.006779
vn -0.999976 0.000000 0.006958
vn -0.999976 0.000000 0.006958
vn -0.980785 0.000000 -0.195091
vn -0.980785 0.000000 -0.195091
vn -0.923879 0.000000 -0.382684
vn -0.923879 0.000000 -0.382684
vn -0.831470 0.000000 -0.555570
vn -0.831470 0.000000 -0.555570
vn -0.707107 0.000000 -0.707106
vn -0.707107 0.000000 -0.707106
vn -0.555570 0.000000 -0.831470
vn -0.555570 0.000000 -0.831470
vn -0.382683 0.000000 -0.923880
vn -0.382683 0.000000 -0.923880
vn -0.195090 0.000000 -0.980785
vn -0.195090 0.000000 -0.980785
vn 0.195090 0.000000 -0.980785
vn 0.195090 0.000000 -0.980785
vn 0.382683 0.000000 -0.923880
vn 0.382683 0.000000 -0.923880
vn 0.555570 0.000000 -0.831470
vn 0.555570 0.000000 -0.831470
vn 0.707107 0.000000 -0.707106
vn 0.707107 0.000000 -0.707106
vn 0.831470 0.000000 -0.555570
vn 0.831470 0.000000 -0.555570
vn 0.923879 0.000000 -0.382684
vn 0.923879 0.000000 -0.382684
vn 0.980785 0.000000 -0.195091
vn 0.980785 0.000000 -0.195091
vn -0.923880 0.000000 0.382683
vn -0.923880 0.000000 0.382683
vn -0.707109 0.000000 0.707105
vn -0.707106 0.000000 0.707107
vn -0.382751 0.000000 0.923851
vn -0.382684 0.000000 0.923879
vn 0.382684 0.000000 0.923879
vn 0.382751 0.000000 0.923851
vn 0.707106 0.000000 0.707107
vn 0.707109 0.000000 0.707105
vn 0.923880 0.000000 0.382683
vn 0.923880 0.000000 0.382683
vn 0.000000 -1.000000 -0.000000
vn 0.000000 -1.000000 -0.000000
vn 0.000000 -1.000000 0.000000
vn 0.000000 -1.000000 0.000000
vn 0.000000 1.000000 0.000000
vn 0.000000 1.000000 0.000000
vn 0.000000 1.000000 0.000000
vn 0.000000 1.000000 0.000000
vn 0.000000 1.000000 0.000000
vn 0.000000 1.000000 0.000000
vn 0.000000 1.000000 0.000000
vn 0.000000 1.000000 0.000000
vn 0.000000 1.000000 0.000000
vn 0.000000 1.000000 0.000000
vn 0.000000 1.000000 0.000000
vn 0.000000 1.000000 0.000000
vn 0.000000 1.000000 0.000000
vn 0.000000 1.000000 0.000000
vn 0.000000 1.000000 0.000000
vn 0.000000 1.000000 0.000000
vn 0.000000 1.000000 -0.000000
vn 0.000000 1.000000 -0.000000
vn 0.000000 1.000000 -0.000000
vn 0.000000 1.000000 -0.000000
vn 0.000000 1.000000 -0.000000
vn 0.000000 1.000000 -0.000000
vn 0.000000 1.000000 0.000000
vn 0.000000 1.000000 0.000000
vn 0.000000 1.000000 -0.000000
vn 0.000000 1.000000 -0.000000
vn 0.000000 1.000000 0.000000
vn 0.000000 1.000000 0.000000
vn 0.000000 -1.000000 -0.000000
vn 0.000000 -1.000000 -0.000000
vn 0.000000 -1.000000 -0.000000
vn 0.000000 -1.000000 -0.000000
vn 0.000000 -1.000000 -0.000000
vn 0.000000 -1.000000 -0.000000
vn 0.000000 -1.000000 0.000000
vn 0.000000 -1.000000 0.000000
vn 0.000000 -1.000000 0.000000
vn 0.000000 -1.000000 0.000000
vn 0.000000 -1.000000 0.000000
vn 0.000000 -1.000000 0.000000
vn 0.000000 -1.000000 0.000000
vn 0.000000 -1.000000 0.000000
vn 0.000000 -1.000000 -0.000000
vn 0.000000 -1.000000 -0.000000
vn 0.000000 -1.000000 -0.000000
vn 0.000000 -1.000000 -0.000000
vn 0.000000 -1.000000 0.000000
vn 0.000000 -1.000000 0.000000
vn 0.000000 -1.000000 -0.000000
vn 0.000000 -1.000000 -0.000000
vn 0.000000 -1.000000 0.000000
vn 0.000000 -1.000000 0.000000
s 1
g pCube1
usemtl initialShadingGroup
f 1/1/1 2/150/2 43/3/3 44/4/4
f 2/2/2 1/1/1 4/5/5 3/147/6
f 3/6/6 4/5/5 48/7/7 47/8/8
s 2
f 5/9/9 6/162/10 8/137/11 7/139/12
f 6/138/10 5/142/9 21/13/13 22/132/14
f 7/12/12 8/161/11 90/118/15 89/16/16
f 9/17/17 10/160/18 46/126/19 45/20/20
f 10/18/18 9/149/17 12/21/21 11/159/22
f 11/22/22 12/148/21 49/23/23 50/125/24
f 13/25/25 14/158/26 74/119/27 73/28/28
f 14/134/26 13/143/25 15/29/29 16/157/30
f 16/133/30 15/146/29 109/31/31 110/114/32
s 1
f 17/33/33 18/34/34 24/35/35 23/36/36
f 18/34/34 17/33/33 19/37/37 20/38/38
f 20/38/38 19/141/37 81/39/39 82/40/40
s 2
f 22/132/14 21/13/13 25/41/41 26/131/42
s 1
f 23/36/36 24/35/35 28/43/43 27/44/44
s 2
f 26/131/42 25/41/41 29/45/45 30/130/46
s 1
f 27/44/44 28/43/43 32/47/47 31/48/48
s 2
f 30/130/46 29/45/45 33/49/49 34/129/50
s 1
f 31/48/48 32/47/47 36/51/51 35/52/52
s 2
f 34/129/50 33/49/49 37/53/53 38/128/54
s 1
f 35/52/52 36/51/51 40/55/55 39/56/56
s 2
f 38/128/54 37/53/53 41/57/57 42/127/58
s 1
f 39/56/56 40/55/55 44/4/4 43/3/3
s 2
f 42/127/58 41/57/57 45/20/20 46/126/19
s 1
f 47/8/8 48/7/7 52/59/59 51/60/60
s 2
f 50/125/24 49/23/23 53/61/61 54/124/62
s 1
f 51/60/60 52/59/59 56/63/63 55/64/64
s 2
f 54/124/62 53/61/61 57/65/65 58/123/66
s 1
f 55/64/64 56/63/63 60/67/67 59/68/68
s 2
f 58/123/66 57/65/65 61/69/69 62/122/70
s 1
f 59/68/68 60/67/67 64/71/71 63/72/72
s 2
f 62/122/70 61/69/69 65/73/73 66/121/74
s 1
f 63/72/72 64/71/71 68/75/75 67/76/76
s 2
f 66/121/74 65/73/73 69/77/77 70/120/78
s 1
f 67/76/76 68/75/75 72/79/79 71/80/80
s 2
f 70/120/78 69/77/77 73/28/28 74/119/27
s 1
f 71/80/80 72/79/79 76/81/81 75/144/82
f 75/82/82 76/81/81 88/83/83 87/145/84
s 2
f 77/156/85 78/154/86 97/87/87 98/117/88
f 78/86/86 77/85/85 80/89/89 79/151/90
f 79/90/90 80/155/89 102/115/91 101/92/92
s 1
f 82/40/40 81/140/39 91/93/93 92/94/94
f 83/95/95 84/96/96 100/97/97 99/98/98
f 84/96/96 83/153/95 86/99/99 85/100/100
f 85/100/100 86/152/99 103/101/101 104/102/102
f 87/84/84 88/83/83 112/103/103 111/104/104
s 2
f 89/16/16 90/118/15 94/116/105 93/106/106
s 1
f 92/94/94 91/93/93 95/107/107 96/108/108
s 2
f 93/106/106 94/116/105 98/117/88 97/87/87
s 1
f 96/108/108 95/107/107 99/98/98 100/97/97
s 2
f 101/92/92 102/115/91 106/113/109 105/110/110
s 1
f 104/102/102 103/101/101 107/111/111 108/112/112
s 2
f 105/110/110 106/113/109 110/114/32 109/31/31
s 1
f 108/112/112 107/111/111 111/104/104 112/103/103
s 8
f 83/153/113 78/86/114 79/151/115 86/99/116
f 9/149/117 2/2/118 3/147/119 12/21/120
f 87/145/121 15/29/122 13/143/123 75/82/124
f 19/141/125 5/9/126 7/139/127 81/39/128
f 19/37/125 17/33/129 21/13/130 5/142/126
f 17/33/129 23/36/131 25/41/132 21/13/130
f 23/36/131 27/44/133 29/45/134 25/41/132
f 27/44/133 31/48/135 33/49/136 29/45/134
f 31/48/135 35/52/137 37/53/138 33/49/136
f 35/52/137 39/56/139 41/57/140 37/53/138
f 39/56/139 43/3/141 45/20/142 41/57/140
f 43/3/141 2/150/118 9/17/117 45/20/142
f 3/6/119 47/8/143 49/23/144 12/148/120
f 47/8/143 51/60/145 53/61/146 49/23/144
f 51/60/145 55/64/147 57/65/148 53/61/146
f 55/64/147 59/68/149 61/69/150 57/65/148
f 59/68/149 63/72/151 65/73/152 61/69/150
f 63/72/151 67/76/153 69/77/154 65/73/152
f 67/76/153 71/80/155 73/28/156 69/77/154
f 71/80/155 75/144/124 13/25/123 73/28/156
f 7/12/127 89/16/157 91/93/158 81/140/128
f 89/16/157 93/106/159 95/107/160 91/93/158
f 93/106/159 97/87/161 99/98/162 95/107/160
f 97/87/161 78/154/114 83/95/113 99/98/162
f 79/90/115 101/92/163 103/101/164 86/152/116
f 101/92/163 105/110/165 107/111/166 103/101/164
f 105/110/165 109/31/167 111/104/168 107/111/166
f 109/31/167 15/146/122 87/84/121 111/104/168
s 12
f 50/24/169 46/19/170 10/136/171 11/135/172
s 13
f 104/102/173 100/97/174 84/96/175 85/100/176
f 112/103/177 92/94/178 96/108/179 108/112/180
f 108/112/180 96/108/179 100/97/174 104/102/173
f 20/38/181 76/81/182 72/79/183 18/34/184
f 88/83/185 82/40/186 92/94/178 112/103/177
f 88/83/185 76/81/182 20/38/181 82/40/186
f 24/35/187 68/75/188 64/71/189 28/43/190
f 18/34/184 72/79/183 68/75/188 24/35/187
f 36/51/191 56/63/192 52/59/193 40/55/194
f 28/43/190 64/71/189 60/67/195 32/47/196
f 40/55/194 52/59/193 48/7/197 44/4/198
f 32/47/196 60/67/195 56/63/192 36/51/191
f 44/4/198 48/7/197 4/5/199 1/1/200
s 12
f 58/66/201 38/54/202 42/58/203 54/62/204
f 54/62/204 42/58/203 46/19/170 50/24/169
f 66/74/205 30/46/206 34/50/207 62/70/208
f 62/70/208 34/50/207 38/54/202 58/66/201
f 74/27/209 22/14/210 26/42/211 70/78/212
f 70/78/212 26/42/211 30/46/206 66/74/205
f 14/26/213 6/10/214 22/14/210 74/27/209
f 110/32/215 90/15/216 8/11/217 16/30/218
f 16/30/218 8/11/217 6/10/214 14/26/213
f 102/91/219 98/88/220 94/105/221 106/109/222
f 106/109/222 94/105/221 90/15/216 110/32/215
f 77/85/223 98/88/220 102/91/219 80/89/224
